<svg viewBox="0 0 128 128" xmlns="http://www.w3.org/2000/svg"><path d="M116.2 62.9L59.8 86.8c-4.3 1.8-9.1 1.7-13.2-.3l-27.8-14-3.6 7.1 27.9 14C46.4 95.2 50 96 53.6 96c3.2 0 6.4-.6 9.3-1.9l56.4-23.8c3-1.3 5.3-3.7 6.5-6.7 1.2-3.1 1.1-6.4-.3-9.4-2.7-5.8-9.8-8.5-15.9-5.9l-3.5 1.5-17 7.2 3.1 7.4 17-7.2 3.5-1.5c2.1-.9 4.6-.1 5.5 1.9.5 1 .5 2.1.1 3.1s-1.1 1.8-2.1 2.2z"/><path d="M9 56.9l9.4-7.8c5.4-4.1 12-5.9 18.7-5.1 2.7.3 5.2 1 7.6 2.1l25.9 11.5c.7.3 1.3.8 1.7 1.5.7 1.1.8 2.5.3 3.8-.2.4-.4.7-.6 1-1.2 1.3-3 1.7-4.6 1l-20-8.9-3.3 7.3 20 8.9c1.6.7 3.3 1.1 4.9 1.1 3.4 0 6.6-1.4 9-4.1.8-.9 1.5-1.9 2-3 1.6-3.7 1.3-7.9-.8-11.3-1.3-2-3.1-3.6-5.2-4.5L48 38.8c-3.1-1.4-6.5-2.3-9.9-2.7-8.8-1-17.5 1.4-24.5 6.7L1 53.1V97h8V56.9z"/></svg>